<svg width="36px" height="36px" viewBox="0 -4 36 36" xmlns="http://www.w3.org/2000/svg">
  <g id="Lager_107" data-name="Lager 107" transform="translate(2 -2)">
    <g id="Path_109" data-name="Path 109" fill="none" stroke-miterlimit="10">
      <path d="M-2,16h0c9.9,18.667,26.1,18.667,36,0h0C24.1-2.667,7.9-2.667-2,16Z" stroke="none"/>
      <path d="M 16 5.99974250793457 C 13.58262825012207 5.99974250793457 11.17097091674805 6.902427673339844 8.832014083862305 8.682699203491211 C 6.567970275878906 10.40596008300781 4.47418212890625 12.86179161071777 2.590639114379883 15.99999809265137 C 4.474178314208984 19.1381950378418 6.567958831787109 21.59402465820313 8.832014083862305 23.31728553771973 C 11.17097091674805 25.09757232666016 13.58262825012207 26.00024223327637 16 26.00024223327637 C 18.41737174987793 26.00024223327637 20.82902908325195 25.09757232666016 23.1679859161377 23.31728553771973 C 25.43204116821289 21.59402465820313 27.52582168579102 19.1381950378418 29.40936088562012 15.99999809265137 C 27.52581787109375 12.86179161071777 25.43202972412109 10.40596008300781 23.1679859161377 8.682699203491211 C 20.82902908325195 6.902427673339844 18.41737174987793 5.99974250793457 16 5.99974250793457 M 16 1.999750137329102 C 22.52499961853027 1.999750137329102 29.04999923706055 6.666500091552734 34 16 C 29.04999923706055 25.33349990844727 22.52499961853027 30.0002498626709 16 30.0002498626709 C 9.475000381469727 30.0002498626709 2.950000762939453 25.33349990844727 -2 16 C 2.950000762939453 6.666500091552734 9.475000381469727 1.999750137329102 16 1.999750137329102 Z" stroke="none" fill="#040505"/>
    </g>
    <circle id="Ellipse_13" data-name="Ellipse 13" cx="4" cy="4" r="4" transform="translate(12 12)" fill="#040505"/>
  </g>
</svg>
